# xmcd
#
# Track frame offsets:
#	150
#	19852
#	40406
#	59532
#
# Disc length: 1080 seconds
#
# Revision: 1
# Processed by: cddbd v1.5.2PL0 Copyright (c) Steve Scherf et al.
# Submitted via: audiograbber 1.83.01
#
DISCID=31043604
DTITLE=Scandinavian Music Group - Näin Minä Vihellän Matkallani [CD2) (Bonus-EP
DTITLE=)
DYEAR=2009
DGENRE=Pop
TTITLE0=Letitä Tukkani
TTITLE1=Kaikki Nuoret Tyypit
TTITLE2=Levoton Tuhkimo
TTITLE3=Ambulanssi Tuli Ja Kaikki Itki
EXTD=TR.
EXTT0=
EXTT1=
EXTT2=
EXTT3=
PLAYORDER=
